<svg xmlns="http://www.w3.org/2000/svg" viewBox="0 0 400 400">
  
  <defs>
    <linearGradient id="skyGrad" x1="0%" y1="0%" x2="0%" y2="100%">
      <stop offset="0%" style="stop-color:#87CEEB;stop-opacity:1"/>
      <stop offset="100%" style="stop-color:#FFE4B5;stop-opacity:1"/>
    </linearGradient>
  </defs>
  <rect width="400" height="400" fill="url(#skyGrad)" style=";animation-delay:0.0s" class="reveal"/>
  
  
  <circle cx="340" cy="60" r="30" fill="#FFD700" opacity="0.8" style=";animation-delay:0.1s" class="reveal"/>
  
  
  <rect x="0" y="320" width="400" height="80" fill="#555" style=";animation-delay:0.3s" class="reveal"/>
  <line x1="0" y1="350" x2="400" y2="350" stroke="#FFD700" stroke-width="3" stroke-dasharray="20,15" style=";animation-delay:0.4s" class="reveal"/>
  
  
  <rect x="20" y="220" width="40" height="100" fill="#8B7355" style=";animation-delay:0.6s" class="reveal"/>
  <rect x="65" y="240" width="30" height="80" fill="#A0826D" style=";animation-delay:0.8s" class="reveal"/>
  <rect x="350" y="230" width="35" height="90" fill="#8B7355" style=";animation-delay:0.9s" class="reveal"/>
  <rect x="320" y="250" width="25" height="70" fill="#A0826D" style=";animation-delay:1.1s" class="reveal"/>
  
  
  <line x1="50" y1="280" x2="120" y2="280" stroke="#FFF" stroke-width="2" opacity="0.6" style=";animation-delay:1.2s" class="reveal"/>
  <line x1="40" y1="300" x2="130" y2="300" stroke="#FFF" stroke-width="2" opacity="0.6" style=";animation-delay:1.3s" class="reveal"/>
  <line x1="60" y1="320" x2="140" y2="320" stroke="#FFF" stroke-width="2" opacity="0.6" style=";animation-delay:1.5s" class="reveal"/>
  
  
  <ellipse cx="220" cy="230" rx="55" ry="65" fill="#FFF" stroke="#000" stroke-width="2" style=";animation-delay:1.6s" class="reveal"/>
  
  
  <circle cx="220" cy="150" r="50" fill="#FFF" stroke="#000" stroke-width="2" style=";animation-delay:1.8s" class="reveal"/>
  
  
  <circle cx="180" cy="110" r="18" fill="#000" style=";animation-delay:1.9s" class="reveal"/>
  <circle cx="260" cy="110" r="18" fill="#000" style=";animation-delay:2.1s" class="reveal"/>
  <circle cx="180" cy="110" r="10" fill="#5C3A1E" style=";animation-delay:2.2s" class="reveal"/>
  <circle cx="260" cy="110" r="10" fill="#5C3A1E" style=";animation-delay:2.4s" class="reveal"/>
  
  
  <ellipse cx="200" cy="150" rx="14" ry="18" fill="#000" transform="rotate(-15 200 150)" style=";animation-delay:2.5s" class="reveal"/>
  <ellipse cx="240" cy="150" rx="14" ry="18" fill="#000" transform="rotate(15 240 150)" style=";animation-delay:2.7s" class="reveal"/>
  
  
  <circle cx="200" cy="148" r="5" fill="#FFF" style=";animation-delay:2.8s" class="reveal"/>
  <circle cx="240" cy="148" r="5" fill="#FFF" style=";animation-delay:3.0s" class="reveal"/>
  <circle cx="201" cy="149" r="3" fill="#000" style=";animation-delay:3.1s" class="reveal"/>
  <circle cx="241" cy="149" r="3" fill="#000" style=";animation-delay:3.3s" class="reveal"/>
  
  
  <ellipse cx="220" cy="170" rx="5" ry="4" fill="#000" style=";animation-delay:3.4s" class="reveal"/>
  
  
  <path d="M 220 174 Q 215 180 210 178" fill="none" stroke="#000" stroke-width="1.5" style=";animation-delay:3.6s" class="reveal"/>
  <path d="M 220 174 Q 225 180 230 178" fill="none" stroke="#000" stroke-width="1.5" style=";animation-delay:3.7s" class="reveal"/>
  
  
  <ellipse cx="170" cy="220" rx="15" ry="35" fill="#000" transform="rotate(-20 170 220)" style=";animation-delay:3.9s" class="reveal"/>
  <ellipse cx="270" cy="220" rx="15" ry="35" fill="#000" transform="rotate(20 270 220)" style=";animation-delay:4.0s" class="reveal"/>
  
  
  <rect x="278" y="225" width="35" height="40" fill="#8B4513" stroke="#000" stroke-width="2" rx="2" style=";animation-delay:4.2s" class="reveal"/>
  <rect x="285" y="218" width="20" height="8" fill="none" stroke="#000" stroke-width="2" style=";animation-delay:4.3s" class="reveal"/>
  <line x1="295" y1="232" x2="295" y2="258" stroke="#000" stroke-width="1" style=";animation-delay:4.5s" class="reveal"/>
  <rect x="290" y="245" width="10" height="5" fill="#FFD700" style=";animation-delay:4.7s" class="reveal"/>
  
  
  <rect x="140" y="240" width="20" height="25" fill="#FFF" stroke="#000" stroke-width="2" style=";animation-delay:4.8s" class="reveal"/>
  <path d="M 160 245 Q 168 248 160 255" fill="none" stroke="#000" stroke-width="2" style=";animation-delay:5.0s" class="reveal"/>
  <ellipse cx="150" cy="240" rx="10" ry="3" fill="#6B4423" style=";animation-delay:5.1s" class="reveal"/>
  <path d="M 145 235 Q 145 230 147 228" fill="none" stroke="#888" stroke-width="1.5" style=";animation-delay:5.3s" class="reveal"/>
  <path d="M 150 235 Q 150 228 152 225" fill="none" stroke="#888" stroke-width="1.5" style=";animation-delay:5.4s" class="reveal"/>
  <path d="M 155 235 Q 155 230 157 228" fill="none" stroke="#888" stroke-width="1.5" style=";animation-delay:5.6s" class="reveal"/>
  
  
  <ellipse cx="200" cy="290" rx="15" ry="25" fill="#000" style=";animation-delay:5.7s" class="reveal"/>
  <ellipse cx="240" cy="290" rx="15" ry="25" fill="#000" style=";animation-delay:5.9s" class="reveal"/>
  
  
  <ellipse cx="200" cy="315" rx="18" ry="8" fill="#FFF" stroke="#000" stroke-width="2" style=";animation-delay:6.0s" class="reveal"/>
  <ellipse cx="240" cy="315" rx="18" ry="8" fill="#FFF" stroke="#000" stroke-width="2" style=";animation-delay:6.2s" class="reveal"/>
  
  
  <path d="M 182 320 L 182 335 L 218 335 L 218 320 Z" fill="#FF6B6B" stroke="#000" stroke-width="2" style=";animation-delay:6.3s" class="reveal"/>
  <rect x="186" y="324" width="28" height="3" fill="#FFF" style=";animation-delay:6.5s" class="reveal"/>
  <rect x="186" y="330" width="28" height="3" fill="#FFF" style=";animation-delay:6.6s" class="reveal"/>
  
  
  <path d="M 222 320 L 222 335 L 258 335 L 258 320 Z" fill="#FF6B6B" stroke="#000" stroke-width="2" style=";animation-delay:6.8s" class="reveal"/>
  <rect x="226" y="324" width="28" height="3" fill="#FFF" style=";animation-delay:6.9s" class="reveal"/>
  <rect x="226" y="330" width="28" height="3" fill="#FFF" style=";animation-delay:7.1s" class="reveal"/>
  
  
  <circle cx="188" cy="343" r="5" fill="#333" stroke="#000" stroke-width="1" style=";animation-delay:7.2s" class="reveal"/>
  <circle cx="200" cy="343" r="5" fill="#333" stroke="#000" stroke-width="1" style=";animation-delay:7.4s" class="reveal"/>
  <circle cx="212" cy="343" r="5" fill="#333" stroke="#000" stroke-width="1" style=";animation-delay:7.5s" class="reveal"/>
  <circle cx="188" cy="343" r="2" fill="#FFF" style=";animation-delay:7.7s" class="reveal"/>
  <circle cx="200" cy="343" r="2" fill="#FFF" style=";animation-delay:7.8s" class="reveal"/>
  <circle cx="212" cy="343" r="2" fill="#FFF" style=";animation-delay:8.0s" class="reveal"/>
  
  
  <circle cx="228" cy="343" r="5" fill="#333" stroke="#000" stroke-width="1" style=";animation-delay:8.1s" class="reveal"/>
  <circle cx="240" cy="343" r="5" fill="#333" stroke="#000" stroke-width="1" style=";animation-delay:8.3s" class="reveal"/>
  <circle cx="252" cy="343" r="5" fill="#333" stroke="#000" stroke-width="1" style=";animation-delay:8.4s" class="reveal"/>
  <circle cx="228" cy="343" r="2" fill="#FFF" style=";animation-delay:8.6s" class="reveal"/>
  <circle cx="240" cy="343" r="2" fill="#FFF" style=";animation-delay:8.7s" class="reveal"/>
  <circle cx="252" cy="343" r="2" fill="#FFF" style=";animation-delay:8.9s" class="reveal"/>
  
  
  <path d="M 275 130 Q 273 125 275 120 Q 277 125 275 130 Z" fill="#4FC3F7" style=";animation-delay:9.0s" class="reveal"/>
  
  
  <polygon points="215,195 220,190 225,195 222,215 218,215" fill="#1E3A8A" stroke="#000" stroke-width="1" style=";animation-delay:9.2s" class="reveal"/>
  
  
  <line x1="150" y1="345" x2="180" y2="345" stroke="#FFF" stroke-width="1.5" opacity="0.7" style=";animation-delay:9.3s" class="reveal"/>
  <line x1="155" y1="355" x2="175" y2="355" stroke="#FFF" stroke-width="1.5" opacity="0.7" style=";animation-delay:9.5s" class="reveal"/>
<style>
        @keyframes reveal { from { opacity: 0; } to { opacity: 1; } }
        .reveal { opacity: 0; animation: reveal 0.002s linear forwards; }
        </style></svg>