<svg xmlns="http://www.w3.org/2000/svg" viewBox="0 0 600 400" width="600" height="400">
  
  <defs>
    <linearGradient id="sky" x1="0" y1="0" x2="0" y2="1">
      <stop offset="0%" stop-color="#87CEEB"/>
      <stop offset="100%" stop-color="#FFE4B5"/>
    </linearGradient>
    <linearGradient id="road" x1="0" y1="0" x2="0" y2="1">
      <stop offset="0%" stop-color="#555"/>
      <stop offset="100%" stop-color="#333"/>
    </linearGradient>
  </defs>
  
  
  <rect width="600" height="280" fill="url(#sky)" style=";animation-delay:0.0s" class="reveal"/>
  
  
  <circle cx="80" cy="60" r="30" fill="#FFD700" opacity="0.8" style=";animation-delay:0.1s" class="reveal"/>
  
  
  <ellipse cx="450" cy="50" rx="40" ry="15" fill="white" opacity="0.8" style=";animation-delay:0.3s" class="reveal"/>
  <ellipse cx="480" cy="55" rx="30" ry="12" fill="white" opacity="0.8" style=";animation-delay:0.4s" class="reveal"/>
  <ellipse cx="200" cy="80" rx="35" ry="13" fill="white" opacity="0.8" style=";animation-delay:0.6s" class="reveal"/>
  
  
  <rect x="450" y="150" width="60" height="130" fill="#888" style=";animation-delay:0.8s" class="reveal"/>
  <rect x="460" y="160" width="10" height="15" fill="#FFD700" style=";animation-delay:0.9s" class="reveal"/>
  <rect x="480" y="160" width="10" height="15" fill="#FFD700" style=";animation-delay:1.1s" class="reveal"/>
  <rect x="460" y="185" width="10" height="15" fill="#FFD700" style=";animation-delay:1.2s" class="reveal"/>
  <rect x="480" y="185" width="10" height="15" fill="#FFD700" style=";animation-delay:1.3s" class="reveal"/>
  <rect x="460" y="210" width="10" height="15" fill="#FFD700" style=";animation-delay:1.5s" class="reveal"/>
  <rect x="480" y="210" width="10" height="15" fill="#FFD700" style=";animation-delay:1.6s" class="reveal"/>
  
  <rect x="520" y="120" width="70" height="160" fill="#777" style=";animation-delay:1.8s" class="reveal"/>
  <rect x="530" y="130" width="12" height="18" fill="#FFD700" style=";animation-delay:1.9s" class="reveal"/>
  <rect x="550" y="130" width="12" height="18" fill="#FFD700" style=";animation-delay:2.1s" class="reveal"/>
  <rect x="570" y="130" width="12" height="18" fill="#FFD700" style=";animation-delay:2.2s" class="reveal"/>
  <rect x="530" y="160" width="12" height="18" fill="#FFD700" style=";animation-delay:2.4s" class="reveal"/>
  <rect x="550" y="160" width="12" height="18" fill="#FFD700" style=";animation-delay:2.5s" class="reveal"/>
  <rect x="570" y="160" width="12" height="18" fill="#FFD700" style=";animation-delay:2.7s" class="reveal"/>
  
  
  <rect y="280" width="600" height="120" fill="url(#road)" style=";animation-delay:2.8s" class="reveal"/>
  
  
  <rect y="335" width="600" height="4" fill="#FFD700" stroke="#FFD700" stroke-width="2" style=";animation-delay:3.0s" class="reveal"/>
  <rect y="338" width="600" height="2" fill="#333" style=";animation-delay:3.1s" class="reveal"/>
  
  
  <line x1="20" y1="220" x2="80" y2="220" stroke="white" stroke-width="3" opacity="0.6" style=";animation-delay:3.3s" class="reveal"/>
  <line x1="40" y1="240" x2="100" y2="240" stroke="white" stroke-width="3" opacity="0.6" style=";animation-delay:3.4s" class="reveal"/>
  <line x1="10" y1="260" x2="90" y2="260" stroke="white" stroke-width="3" opacity="0.6" style=";animation-delay:3.6s" class="reveal"/>
  
  
  <ellipse cx="300" cy="365" rx="80" ry="8" fill="black" opacity="0.3" style=";animation-delay:3.7s" class="reveal"/>
  
  
  <g transform="translate(250, 310)">
    
    <path d="M -20,0 L 20,0 L 18,15 L -18,15 Z" fill="#222" stroke="#111" stroke-width="1" style=";animation-delay:3.9s" class="reveal"/>
    
    <line x1="-10" y1="2" x2="-10" y2="10" stroke="white" stroke-width="1.5" style=";animation-delay:4.0s" class="reveal"/>
    <line x1="0" y1="2" x2="0" y2="10" stroke="white" stroke-width="1.5" style=";animation-delay:4.2s" class="reveal"/>
    <line x1="10" y1="2" x2="10" y2="10" stroke="white" stroke-width="1.5" style=";animation-delay:4.3s" class="reveal"/>
    
    <rect x="-18" y="15" width="36" height="5" fill="#444" style=";animation-delay:4.5s" class="reveal"/>
    
    <circle cx="-13" cy="25" r="6" fill="#222" style=";animation-delay:4.7s" class="reveal"/>
    <circle cx="-13" cy="25" r="3" fill="#666" style=";animation-delay:4.8s" class="reveal"/>
    <circle cx="-5" cy="25" r="6" fill="#222" style=";animation-delay:5.0s" class="reveal"/>
    <circle cx="-5" cy="25" r="3" fill="#666" style=";animation-delay:5.1s" class="reveal"/>
    <circle cx="5" cy="25" r="6" fill="#222" style=";animation-delay:5.3s" class="reveal"/>
    <circle cx="5" cy="25" r="3" fill="#666" style=";animation-delay:5.4s" class="reveal"/>
    <circle cx="13" cy="25" r="6" fill="#222" style=";animation-delay:5.6s" class="reveal"/>
    <circle cx="13" cy="25" r="3" fill="#666" style=";animation-delay:5.7s" class="reveal"/>
  </g>
  
  
  <rect x="265" y="240" width="30" height="75" rx="10" fill="black" style=";animation-delay:5.9s" class="reveal"/>
  
  
  <g transform="translate(330, 320)">
    
    <path d="M -20,0 L 20,0 L 18,15 L -18,15 Z" fill="#222" stroke="#111" stroke-width="1" style=";animation-delay:6.0s" class="reveal"/>
    
    <line x1="-10" y1="2" x2="-10" y2="10" stroke="white" stroke-width="1.5" style=";animation-delay:6.2s" class="reveal"/>
    <line x1="0" y1="2" x2="0" y2="10" stroke="white" stroke-width="1.5" style=";animation-delay:6.3s" class="reveal"/>
    <line x1="10" y1="2" x2="10" y2="10" stroke="white" stroke-width="1.5" style=";animation-delay:6.5s" class="reveal"/>
    
    <rect x="-18" y="15" width="36" height="5" fill="#444" style=";animation-delay:6.6s" class="reveal"/>
    
    <circle cx="-13" cy="25" r="6" fill="#222" style=";animation-delay:6.8s" class="reveal"/>
    <circle cx="-13" cy="25" r="3" fill="#666" style=";animation-delay:6.9s" class="reveal"/>
    <circle cx="-5" cy="25" r="6" fill="#222" style=";animation-delay:7.1s" class="reveal"/>
    <circle cx="-5" cy="25" r="3" fill="#666" style=";animation-delay:7.2s" class="reveal"/>
    <circle cx="5" cy="25" r="6" fill="#222" style=";animation-delay:7.4s" class="reveal"/>
    <circle cx="5" cy="25" r="3" fill="#666" style=";animation-delay:7.5s" class="reveal"/>
    <circle cx="13" cy="25" r="6" fill="#222" style=";animation-delay:7.7s" class="reveal"/>
    <circle cx="13" cy="25" r="3" fill="#666" style=";animation-delay:7.8s" class="reveal"/>
  </g>
  
  
  <rect x="320" y="240" width="30" height="85" rx="10" fill="black" style=";animation-delay:8.0s" class="reveal"/>
  
  
  <ellipse cx="300" cy="220" rx="65" ry="55" fill="white" stroke="#222" stroke-width="2" style=";animation-delay:8.1s" class="reveal"/>
  
  
  <ellipse cx="300" cy="235" rx="35" ry="30" fill="#F5F5DC" style=";animation-delay:8.3s" class="reveal"/>
  
  
  <polygon points="290,180 310,180 308,210 300,260 292,210" fill="#E74C3C" stroke="#A93226" stroke-width="1" style=";animation-delay:8.4s" class="reveal"/>
  <polygon points="295,190 305,190 303,205 300,220 297,205" fill="#C0392B" style=";animation-delay:8.6s" class="reveal"/>
  
  
  <circle cx="300" cy="155" r="50" fill="white" stroke="#222" stroke-width="2" style=";animation-delay:8.7s" class="reveal"/>
  
  
  <circle cx="262" cy="115" r="18" fill="black" style=";animation-delay:8.9s" class="reveal"/>
  <circle cx="338" cy="115" r="18" fill="black" style=";animation-delay:9.0s" class="reveal"/>
  <circle cx="262" cy="115" r="9" fill="#444" style=";animation-delay:9.2s" class="reveal"/>
  <circle cx="338" cy="115" r="9" fill="#444" style=";animation-delay:9.3s" class="reveal"/>
  
  
  <ellipse cx="278" cy="155" rx="18" ry="22" fill="black" transform="rotate(-20 278 155)" style=";animation-delay:9.5s" class="reveal"/>
  <ellipse cx="322" cy="155" rx="18" ry="22" fill="black" transform="rotate(20 322 155)" style=";animation-delay:9.6s" class="reveal"/>
  
  
  <circle cx="280" cy="155" r="6" fill="white" style=";animation-delay:9.8s" class="reveal"/>
  <circle cx="320" cy="155" r="6" fill="white" style=";animation-delay:9.9s" class="reveal"/>
  <circle cx="282" cy="155" r="4" fill="#222" style=";animation-delay:10.1s" class="reveal"/>
  <circle cx="322" cy="155" r="4" fill="#222" style=";animation-delay:10.2s" class="reveal"/>
  <circle cx="283" cy="154" r="1.5" fill="white" style=";animation-delay:10.4s" class="reveal"/>
  <circle cx="323" cy="154" r="1.5" fill="white" style=";animation-delay:10.5s" class="reveal"/>
  
  
  <path d="M 265,135 Q 278,130 290,135" stroke="black" stroke-width="3" fill="none" stroke-linecap="round" style=";animation-delay:10.7s" class="reveal"/>
  <path d="M 310,135 Q 322,130 335,135" stroke="black" stroke-width="3" fill="none" stroke-linecap="round" style=";animation-delay:10.8s" class="reveal"/>
  
  
  <ellipse cx="300" cy="175" rx="6" ry="4" fill="#222" style=";animation-delay:11.0s" class="reveal"/>
  
  
  <path d="M 300,180 Q 300,188 290,188" stroke="#222" stroke-width="2" fill="none" stroke-linecap="round" style=";animation-delay:11.1s" class="reveal"/>
  <path d="M 300,180 Q 300,188 310,188" stroke="#222" stroke-width="2" fill="none" stroke-linecap="round" style=";animation-delay:11.3s" class="reveal"/>
  
  
  <path d="M 245,210 Q 220,230 215,255" stroke="black" stroke-width="22" fill="none" stroke-linecap="round" style=";animation-delay:11.4s" class="reveal"/>
  <circle cx="215" cy="258" r="12" fill="black" style=";animation-delay:11.6s" class="reveal"/>
  
  
  <path d="M 355,210 Q 385,225 390,255" stroke="black" stroke-width="22" fill="none" stroke-linecap="round" style=";animation-delay:11.7s" class="reveal"/>
  <circle cx="390" cy="258" r="12" fill="black" style=";animation-delay:11.9s" class="reveal"/>
  
  
  <g transform="translate(190, 255)">
    <rect x="0" y="0" width="50" height="35" rx="3" fill="#5D4037" stroke="#3E2723" stroke-width="2" style=";animation-delay:12.0s" class="reveal"/>
    <rect x="0" y="0" width="50" height="8" fill="#4E342E" style=";animation-delay:12.2s" class="reveal"/>
    <rect x="18" y="-5" width="14" height="6" rx="2" fill="none" stroke="#3E2723" stroke-width="2" style=";animation-delay:12.3s" class="reveal"/>
    <rect x="22" y="14" width="6" height="8" fill="#FFD700" style=";animation-delay:12.5s" class="reveal"/>
    <circle cx="25" cy="18" r="1.5" fill="#3E2723" style=";animation-delay:12.6s" class="reveal"/>
  </g>
  
  
  <g transform="translate(385, 245)">
    <rect x="0" y="0" width="22" height="25" rx="2" fill="white" stroke="#333" stroke-width="1.5" style=";animation-delay:12.8s" class="reveal"/>
    <path d="M 22,5 Q 30,5 30,12 Q 30,19 22,19" fill="none" stroke="#333" stroke-width="1.5" style=";animation-delay:12.9s" class="reveal"/>
    <ellipse cx="11" cy="2" rx="9" ry="2" fill="#6D4C41" style=";animation-delay:13.1s" class="reveal"/>
    
    <path d="M 6,-5 Q 8,-8 6,-12" stroke="#CCC" stroke-width="1.5" fill="none" opacity="0.7" style=";animation-delay:13.2s" class="reveal"/>
    <path d="M 12,-5 Q 14,-8 12,-12" stroke="#CCC" stroke-width="1.5" fill="none" opacity="0.7" style=";animation-delay:13.4s" class="reveal"/>
    <path d="M 18,-5 Q 20,-8 18,-12" stroke="#CCC" stroke-width="1.5" fill="none" opacity="0.7" style=";animation-delay:13.5s" class="reveal"/>
  </g>
  
  
  <path d="M 252,135 Q 300,95 348,135" stroke="#222" stroke-width="4" fill="none" style=";animation-delay:13.7s" class="reveal"/>
  <ellipse cx="252" cy="155" rx="6" ry="10" fill="#E91E63" style=";animation-delay:13.8s" class="reveal"/>
  <ellipse cx="348" cy="155" rx="6" ry="10" fill="#E91E63" style=";animation-delay:14.0s" class="reveal"/>
  
  
  <g opacity="0.8">
    <circle cx="380" cy="100" r="4" fill="#222" style=";animation-delay:14.1s" class="reveal"/>
    <line x1="383" y1="100" x2="383" y2="85" stroke="#222" stroke-width="1.5" style=";animation-delay:14.3s" class="reveal"/>
    <path d="M 383,85 L 392,88" stroke="#222" stroke-width="2" fill="none" style=";animation-delay:14.4s" class="reveal"/>
    
    <circle cx="405" cy="115" r="3" fill="#222" style=";animation-delay:14.6s" class="reveal"/>
    <line x1="407" y1="115" x2="407" y2="103" stroke="#222" stroke-width="1.5" style=";animation-delay:14.7s" class="reveal"/>
  </g>
<style>
        @keyframes reveal { from { opacity: 0; } to { opacity: 1; } }
        .reveal { opacity: 0; animation: reveal 0.002s linear forwards; }
        </style></svg>